<mxfile host="app.diagrams.net" agent="Mozilla/5.0 (Windows NT 10.0; Win64; x64) AppleWebKit/537.36 (KHTML, like Gecko) Chrome/131.0.0.0 Safari/537.36 Edg/131.0.0.0" version="24.8.6">
  <diagram name="Страница — 1" id="fD9wPRZOilv6h3GpzfN7">
    <mxGraphModel dx="1524" dy="647" grid="1" gridSize="10" guides="1" tooltips="1" connect="1" arrows="1" fold="1" page="1" pageScale="1" pageWidth="827" pageHeight="1169" math="0" shadow="0">
      <root>
        <mxCell id="0" />
        <mxCell id="1" parent="0" />
        <mxCell id="o5vc34Hf87A0yVJfwdXg-1" value="" style="shape=folder;fontStyle=1;spacingTop=10;tabWidth=50;tabHeight=20;tabPosition=left;html=1;whiteSpace=wrap;" vertex="1" parent="1">
          <mxGeometry x="360" y="60" width="210" height="130" as="geometry" />
        </mxCell>
        <mxCell id="o5vc34Hf87A0yVJfwdXg-2" value="&lt;font style=&quot;font-size: 9px;&quot;&gt;UI&lt;/font&gt;" style="text;html=1;align=center;verticalAlign=middle;resizable=0;points=[];autosize=1;strokeColor=none;fillColor=none;" vertex="1" parent="1">
          <mxGeometry x="370" y="50" width="30" height="30" as="geometry" />
        </mxCell>
        <mxCell id="o5vc34Hf87A0yVJfwdXg-4" value="Web" style="shape=folder;fontStyle=1;spacingTop=10;tabWidth=40;tabHeight=14;tabPosition=left;html=1;whiteSpace=wrap;" vertex="1" parent="1">
          <mxGeometry x="370" y="110" width="70" height="50" as="geometry" />
        </mxCell>
        <mxCell id="o5vc34Hf87A0yVJfwdXg-5" value="Mobile" style="shape=folder;fontStyle=1;spacingTop=10;tabWidth=40;tabHeight=14;tabPosition=left;html=1;whiteSpace=wrap;" vertex="1" parent="1">
          <mxGeometry x="490" y="110" width="70" height="50" as="geometry" />
        </mxCell>
        <mxCell id="o5vc34Hf87A0yVJfwdXg-6" value="Library System" style="shape=folder;fontStyle=1;spacingTop=10;tabWidth=40;tabHeight=14;tabPosition=left;html=1;whiteSpace=wrap;" vertex="1" parent="1">
          <mxGeometry x="385" y="290" width="160" height="90" as="geometry" />
        </mxCell>
        <mxCell id="o5vc34Hf87A0yVJfwdXg-7" value="" style="endArrow=open;endSize=12;dashed=1;html=1;rounded=0;entryX=0.5;entryY=1;entryDx=0;entryDy=0;entryPerimeter=0;exitX=0.511;exitY=0.191;exitDx=0;exitDy=0;exitPerimeter=0;" edge="1" parent="1" source="o5vc34Hf87A0yVJfwdXg-6" target="o5vc34Hf87A0yVJfwdXg-1">
          <mxGeometry width="160" relative="1" as="geometry">
            <mxPoint x="465" y="270" as="sourcePoint" />
            <mxPoint x="580" y="320" as="targetPoint" />
          </mxGeometry>
        </mxCell>
        <mxCell id="o5vc34Hf87A0yVJfwdXg-8" value="&lt;b&gt;Catalog&lt;/b&gt;" style="html=1;whiteSpace=wrap;" vertex="1" parent="1">
          <mxGeometry x="40" y="190" width="100" height="30" as="geometry" />
        </mxCell>
        <mxCell id="o5vc34Hf87A0yVJfwdXg-11" value="&lt;div&gt;&lt;span style=&quot;font-weight: 400;&quot;&gt;&lt;br&gt;&lt;/span&gt;&lt;/div&gt;&lt;div&gt;&lt;span style=&quot;font-weight: 400;&quot;&gt;&amp;nbsp;+ Loan&amp;nbsp;&lt;/span&gt;&lt;/div&gt;&lt;div&gt;&lt;span style=&quot;font-weight: 400;&quot;&gt;&amp;nbsp;+ ReturnProcessor&amp;nbsp;&lt;/span&gt;&lt;/div&gt;&lt;span style=&quot;font-weight: 400;&quot;&gt;&amp;nbsp; - OverdueChecker&amp;nbsp;&lt;/span&gt;" style="shape=folder;fontStyle=1;spacingTop=10;tabWidth=90;tabHeight=30;tabPosition=left;html=1;whiteSpace=wrap;align=left;" vertex="1" parent="1">
          <mxGeometry x="40" y="240" width="230" height="100" as="geometry" />
        </mxCell>
        <mxCell id="o5vc34Hf87A0yVJfwdXg-12" value="" style="shape=folder;fontStyle=1;spacingTop=10;tabWidth=100;tabHeight=20;tabPosition=left;html=1;whiteSpace=wrap;" vertex="1" parent="1">
          <mxGeometry x="610" y="275" width="280" height="125" as="geometry" />
        </mxCell>
        <mxCell id="o5vc34Hf87A0yVJfwdXg-13" value="&lt;font style=&quot;font-size: 10px;&quot;&gt;Data Management&lt;/font&gt;" style="text;html=1;align=center;verticalAlign=middle;resizable=0;points=[];autosize=1;strokeColor=none;fillColor=none;" vertex="1" parent="1">
          <mxGeometry x="600" y="270" width="110" height="30" as="geometry" />
        </mxCell>
        <mxCell id="o5vc34Hf87A0yVJfwdXg-14" value="Book DB" style="shape=folder;fontStyle=1;spacingTop=10;tabWidth=40;tabHeight=14;tabPosition=left;html=1;whiteSpace=wrap;" vertex="1" parent="1">
          <mxGeometry x="620" y="320" width="70" height="50" as="geometry" />
        </mxCell>
        <mxCell id="o5vc34Hf87A0yVJfwdXg-15" value="User DB" style="shape=folder;fontStyle=1;spacingTop=10;tabWidth=40;tabHeight=14;tabPosition=left;html=1;whiteSpace=wrap;" vertex="1" parent="1">
          <mxGeometry x="710" y="320" width="70" height="50" as="geometry" />
        </mxCell>
        <mxCell id="o5vc34Hf87A0yVJfwdXg-16" value="Loan DB" style="shape=folder;fontStyle=1;spacingTop=10;tabWidth=40;tabHeight=14;tabPosition=left;html=1;whiteSpace=wrap;" vertex="1" parent="1">
          <mxGeometry x="800" y="320" width="70" height="50" as="geometry" />
        </mxCell>
        <mxCell id="o5vc34Hf87A0yVJfwdXg-17" value="External Systems" style="shape=folder;fontStyle=1;spacingTop=10;tabWidth=40;tabHeight=14;tabPosition=left;html=1;whiteSpace=wrap;" vertex="1" parent="1">
          <mxGeometry x="390" y="440" width="140" height="80" as="geometry" />
        </mxCell>
        <mxCell id="o5vc34Hf87A0yVJfwdXg-18" value="Analytics Systems" style="shape=folder;fontStyle=1;spacingTop=10;tabWidth=40;tabHeight=14;tabPosition=left;html=1;whiteSpace=wrap;" vertex="1" parent="1">
          <mxGeometry x="670" y="445" width="120" height="75" as="geometry" />
        </mxCell>
        <mxCell id="o5vc34Hf87A0yVJfwdXg-19" value="" style="endArrow=open;endSize=12;dashed=1;html=1;rounded=0;entryX=0.001;entryY=0.477;entryDx=0;entryDy=0;entryPerimeter=0;exitX=0.99;exitY=0.505;exitDx=0;exitDy=0;exitPerimeter=0;" edge="1" parent="1" source="o5vc34Hf87A0yVJfwdXg-6" target="o5vc34Hf87A0yVJfwdXg-12">
          <mxGeometry width="160" relative="1" as="geometry">
            <mxPoint x="551" y="406" as="sourcePoint" />
            <mxPoint x="550" y="300" as="targetPoint" />
          </mxGeometry>
        </mxCell>
        <mxCell id="o5vc34Hf87A0yVJfwdXg-21" value="" style="endArrow=open;endSize=12;dashed=1;html=1;rounded=0;exitX=0;exitY=0;exitDx=80;exitDy=14;exitPerimeter=0;" edge="1" parent="1" source="o5vc34Hf87A0yVJfwdXg-18" target="o5vc34Hf87A0yVJfwdXg-12">
          <mxGeometry width="160" relative="1" as="geometry">
            <mxPoint x="651" y="476" as="sourcePoint" />
            <mxPoint x="650" y="370" as="targetPoint" />
          </mxGeometry>
        </mxCell>
        <mxCell id="o5vc34Hf87A0yVJfwdXg-22" value="" style="endArrow=open;endSize=12;dashed=1;html=1;rounded=0;entryX=0.535;entryY=0.166;entryDx=0;entryDy=0;entryPerimeter=0;exitX=0.5;exitY=1;exitDx=0;exitDy=0;exitPerimeter=0;" edge="1" parent="1" source="o5vc34Hf87A0yVJfwdXg-6" target="o5vc34Hf87A0yVJfwdXg-17">
          <mxGeometry width="160" relative="1" as="geometry">
            <mxPoint x="470" y="384" as="sourcePoint" />
            <mxPoint x="490" y="360" as="targetPoint" />
          </mxGeometry>
        </mxCell>
        <mxCell id="o5vc34Hf87A0yVJfwdXg-26" value="" style="endArrow=none;html=1;edgeStyle=orthogonalEdgeStyle;rounded=0;exitX=1;exitY=0.5;exitDx=0;exitDy=0;" edge="1" parent="1" source="o5vc34Hf87A0yVJfwdXg-8">
          <mxGeometry relative="1" as="geometry">
            <mxPoint x="430" y="310" as="sourcePoint" />
            <mxPoint x="270" y="305" as="targetPoint" />
            <Array as="points">
              <mxPoint x="370" y="205" />
              <mxPoint x="370" y="340" />
              <mxPoint x="270" y="340" />
              <mxPoint x="270" y="305" />
            </Array>
          </mxGeometry>
        </mxCell>
        <mxCell id="o5vc34Hf87A0yVJfwdXg-29" value="" style="endArrow=none;html=1;edgeStyle=orthogonalEdgeStyle;rounded=0;exitX=0.999;exitY=0.476;exitDx=0;exitDy=0;exitPerimeter=0;entryX=-0.004;entryY=0.501;entryDx=0;entryDy=0;entryPerimeter=0;" edge="1" parent="1" source="o5vc34Hf87A0yVJfwdXg-66" target="o5vc34Hf87A0yVJfwdXg-6">
          <mxGeometry relative="1" as="geometry">
            <mxPoint x="350" y="502" as="sourcePoint" />
            <mxPoint x="580" y="310" as="targetPoint" />
            <Array as="points">
              <mxPoint x="370" y="401" />
              <mxPoint x="370" y="335" />
            </Array>
          </mxGeometry>
        </mxCell>
        <mxCell id="o5vc34Hf87A0yVJfwdXg-39" value="" style="endArrow=close;startArrow=circlePlus;endFill=0;startFill=0;endSize=8;html=1;rounded=0;" edge="1" parent="1">
          <mxGeometry width="160" relative="1" as="geometry">
            <mxPoint x="370" y="334.84000000000003" as="sourcePoint" />
            <mxPoint x="380" y="334.84000000000003" as="targetPoint" />
          </mxGeometry>
        </mxCell>
        <mxCell id="o5vc34Hf87A0yVJfwdXg-64" value="&lt;span style=&quot;text-wrap-mode: wrap;&quot;&gt;&lt;font style=&quot;font-size: 11px;&quot;&gt;Loan Management&lt;/font&gt;&lt;/span&gt;" style="text;html=1;align=center;verticalAlign=middle;resizable=0;points=[];autosize=1;strokeColor=none;fillColor=none;" vertex="1" parent="1">
          <mxGeometry x="25" y="240" width="120" height="30" as="geometry" />
        </mxCell>
        <mxCell id="o5vc34Hf87A0yVJfwdXg-66" value="&lt;div&gt;&lt;span style=&quot;font-weight: 400;&quot;&gt;&lt;br&gt;&lt;/span&gt;&lt;/div&gt;&lt;div&gt;&lt;span style=&quot;font-weight: 400;&quot;&gt;&amp;nbsp;+ User&lt;/span&gt;&lt;/div&gt;&lt;div&gt;&lt;span style=&quot;font-weight: 400;&quot;&gt;&amp;nbsp;+ AuthManager&amp;nbsp;&lt;/span&gt;&lt;/div&gt;&lt;span style=&quot;font-weight: 400;&quot;&gt;&amp;nbsp; - UserStatistics&amp;nbsp;&lt;/span&gt;" style="shape=folder;fontStyle=1;spacingTop=10;tabWidth=110;tabHeight=25;tabPosition=left;html=1;whiteSpace=wrap;align=left;" vertex="1" parent="1">
          <mxGeometry x="40" y="360" width="230" height="85" as="geometry" />
        </mxCell>
        <mxCell id="o5vc34Hf87A0yVJfwdXg-69" value="" style="endArrow=none;html=1;edgeStyle=orthogonalEdgeStyle;rounded=0;" edge="1" parent="1">
          <mxGeometry relative="1" as="geometry">
            <mxPoint x="270" y="319.98" as="sourcePoint" />
            <mxPoint x="350" y="339.98" as="targetPoint" />
            <Array as="points">
              <mxPoint x="270" y="339.98" />
            </Array>
          </mxGeometry>
        </mxCell>
        <mxCell id="o5vc34Hf87A0yVJfwdXg-70" value="&lt;font style=&quot;font-size: 11px;&quot;&gt;User Management&lt;/font&gt;" style="text;html=1;align=center;verticalAlign=middle;resizable=0;points=[];autosize=1;strokeColor=none;fillColor=none;" vertex="1" parent="1">
          <mxGeometry x="35" y="360" width="110" height="30" as="geometry" />
        </mxCell>
      </root>
    </mxGraphModel>
  </diagram>
</mxfile>
